<svg width="101" height="101" viewBox="0 0 101 101" fill="none" xmlns="http://www.w3.org/2000/svg">
<path d="M99.479 40.8037C94.1759 13.718 67.8892 -3.96062 40.8035 1.34257C13.7178 6.64575 -3.96081 32.9324 1.34237 60.0181C6.64556 87.1038 32.9322 104.782 60.0179 99.4792C87.1036 94.1761 104.782 67.8894 99.479 40.8037ZM77.657 73.2513L32.3595 42.7873L35.2609 57.6059C35.6548 59.6177 34.3131 61.6127 32.3013 62.0066C30.2895 62.4005 28.2945 61.0588 27.9006 59.047L23.2604 35.347C22.8665 33.3352 24.2081 31.3402 26.2199 30.9463L49.92 26.306C51.9318 25.9121 53.9267 27.2538 54.3206 29.2656C54.7145 31.2774 53.3728 33.2724 51.361 33.6663L36.5424 36.5677L81.8399 67.0317C82.7201 67.6236 83.2461 68.4886 83.4286 69.4209C83.6111 70.3532 83.4502 71.3528 82.8583 72.2329C81.7139 73.9345 79.3586 74.3956 77.657 73.2513Z" fill="white"/>
</svg>
